# xmcd CD database file
#
# Track frame offsets:
#	150
#	19853
#	47840
#	68821
#	83713
#	100006
#	119646
#	138695
#	156611
#	183144
#	204492
#	222255
#	235923
#	251034
#
# Disc length: 3640 seconds
#
# Revision: 0
# Processed by: cddbd v1.5.2PL0 Copyright (c) Steve Scherf et al.
# Submitted via: CDex 1.70beta2
#
DISCID=cc0e360e
DTITLE=Jeff Hooper - In My Dreams
DYEAR=1998
DGENRE=Jazz
TTITLE0=In My Dreams
TTITLE1=This Masquerade
TTITLE2=Unforgettable
TTITLE3=I Think Of You
TTITLE4=Joanna
TTITLE5=Hey Girl
TTITLE6=Sail Upon Your Ocean
TTITLE7=Our Day Will Come
TTITLE8=Just The Way You Are
TTITLE9=You'll Never Find
TTITLE10=The Hungry Years
TTITLE11=I Wanna Be Around
TTITLE12=Stardust
TTITLE13=What Are You Doing The Rest Of Your Life?
EXTD=YEAR: 1998
EXTT0=
EXTT1=
EXTT2=
EXTT3=
EXTT4=
EXTT5=
EXTT6=
EXTT7=
EXTT8=
EXTT9=
EXTT10=
EXTT11=
EXTT12=
EXTT13=
PLAYORDER=
